<svg width="48" height="48" viewBox="0 0 48 48" fill="none" xmlns="http://www.w3.org/2000/svg">
<g clip-path="url(#clip0_30_337)">
<rect width="48" height="48" rx="24" fill="#0F0840"/>
<path d="M13.5934 30L17.4494 18.48H19.4334L23.2894 30H21.8094L18.2014 19.312H18.6494L15.0734 30H13.5934ZM15.4494 27.304V25.968H21.4334V27.304H15.4494ZM29.0887 30.24C28.2994 30.24 27.5794 30.1013 26.9287 29.824C26.278 29.5467 25.718 29.1493 25.2487 28.632C24.7794 28.1093 24.4167 27.48 24.1607 26.744C23.91 26.0027 23.7847 25.168 23.7847 24.24C23.7847 23.0133 24.0034 21.952 24.4407 21.056C24.878 20.16 25.494 19.4693 26.2887 18.984C27.0834 18.4933 28.0167 18.248 29.0887 18.248C30.3794 18.248 31.4194 18.5493 32.2087 19.152C32.998 19.7493 33.542 20.568 33.8407 21.608L32.4007 21.904C32.1607 21.2053 31.766 20.648 31.2167 20.232C30.6674 19.816 29.982 19.608 29.1607 19.608C28.302 19.6027 27.5874 19.7947 27.0167 20.184C26.4514 20.568 26.0247 21.1093 25.7367 21.808C25.4487 22.5067 25.302 23.3173 25.2967 24.24C25.2914 25.1573 25.4327 25.9627 25.7207 26.656C26.0087 27.3493 26.438 27.8933 27.0087 28.288C27.5847 28.6773 28.302 28.8747 29.1607 28.88C29.902 28.8853 30.526 28.744 31.0327 28.456C31.5394 28.168 31.9314 27.752 32.2087 27.208C32.486 26.664 32.654 26.0107 32.7127 25.248H30.2647V24.072H34.2167C34.2327 24.1787 34.2407 24.3067 34.2407 24.456C34.246 24.6 34.2487 24.6987 34.2487 24.752C34.2487 25.8027 34.0514 26.744 33.6567 27.576C33.2674 28.4027 32.6887 29.0533 31.9207 29.528C31.158 30.0027 30.214 30.24 29.0887 30.24Z" fill="white"/>
</g>
<defs>
<clipPath id="clip0_30_337">
<rect width="48" height="48" rx="24" fill="white"/>
</clipPath>
</defs>
</svg>
